<svg xmlns="http://www.w3.org/2000/svg" viewBox="0 0 72.88 47.34"><defs><style>.cls-1{fill:#39c6f4}.cls-2{fill:#b22921}.cls-3{fill:#4d4d4f;opacity:.1}.cls-4{fill:#f44945}</style></defs><title>logo_nav</title><g id="Capa_2" data-name="Capa 2"><g id="Capa_1-2" data-name="Capa 1"><path class="cls-1" d="M63.3 18.53c0-.29 0-.14 0 0z"/><path class="cls-2" d="M11 21.09c-4.31-9.65.26-13.73 6.77-15.4L17 2.31C-.37 5.84 9.41 21.32 11 21.09zm15.92 17.82l-4.75-3 2.13-17L22.16 0h15.93a21.89 21.89 0 0 1 7 1.11 19.42 19.42 0 0 1 5.74 3 14.83 14.83 0 0 1 3.87 4.42A10.81 10.81 0 0 1 56.17 14a11 11 0 0 1-1.44 5.45 14.7 14.7 0 0 1-3.87 4.45c-1.63 1.26-2.61 2.26-4.81 3S43.38 28 40.89 28h-5.31l3.52-6.67h1.79a6.75 6.75 0 0 0 5.51-2.46c.93-.93 1.16-2.88 1.16-4.88a6.15 6.15 0 0 0-2.8-5.11 10.57 10.57 0 0 0-6.67-2.17h-6.38l1.58 12.26-1.58 17z"/><path class="cls-3" d="M51.61 46.52c-21.16-.06-46.71-3.71-47.06-5.87-.29-1.8 8.89-2.27 17.38-2.35-12.24-.23-24.28.7-21.53 3 7.05 3.57 35.26 5.88 51.21 6z"/><path class="cls-4" d="M63.3 18.53c4.57 3.87 10.59 14.05 4.28 20C46.58 53.89 5 26.94 4.55 12.57 4.26 3.23 13.43.79 21.93.38 9.69-.82-2.35 4.18.4 15.94 7.83 35.52 38.78 47.8 54.09 47.33c31.13-1.69 15.65-24 9.21-28.8z"/><path class="cls-2" d="M59.1 16.16l-.55 3.61c4 3.92 6.38 8.32 5.87 12.83-1.16 5.75-8.42 8.16-15.12 8.57 8.6 1.56 31.17-5.66 9.8-25.01z"/></g></g></svg>