<?xml version="1.0" standalone="no"?>
<!DOCTYPE svg PUBLIC "-//W3C//DTD SVG 20010904//EN"
 "http://www.w3.org/TR/2001/REC-SVG-20010904/DTD/svg10.dtd">
<svg version="1.0" xmlns="http://www.w3.org/2000/svg"
 width="558.000000pt" height="558.000000pt" viewBox="0 0 558.000000 558.000000"
 preserveAspectRatio="xMidYMid meet">
<metadata>
Created by potrace 1.11, written by Peter Selinger 2001-2013
</metadata>
<g transform="translate(0.000000,558.000000) scale(0.100000,-0.100000)"
fill="#000000" stroke="none">
<path d="M2 4548 c1 -568 5 -979 9 -913 8 125 12 160 23 185 3 8 8 38 11 65 2
28 9 75 15 105 7 30 11 65 11 78 0 12 5 22 13 22 9 0 16 17 21 50 4 27 11 52
15 55 5 3 11 23 15 45 4 22 11 42 16 46 5 3 9 14 9 25 0 10 5 19 11 19 7 0 9
9 5 24 -7 27 0 37 20 29 9 -3 11 -14 7 -34 -4 -19 -1 -29 7 -29 8 0 9 -6 5
-17 -13 -30 -26 -135 -25 -207 0 -37 -4 -82 -9 -100 -6 -17 -12 -58 -15 -91
-2 -33 -7 -71 -10 -85 -9 -37 -7 -218 3 -270 6 -32 9 -38 11 -20 1 14 4 39 6
55 6 55 5 146 -2 157 -4 7 -2 8 4 4 7 -4 12 -14 12 -23 0 -28 12 -6 21 39 13
58 13 61 23 76 4 7 5 24 2 37 -5 18 -1 27 15 36 17 8 20 17 15 39 -4 22 -2 28
9 24 8 -4 20 8 30 30 21 44 29 45 49 5 12 -24 12 -30 2 -26 -9 4 -12 -2 -8
-19 2 -13 8 -24 13 -24 5 0 9 -4 9 -10 0 -5 -6 -10 -14 -10 -16 0 -24 -40 -31
-151 -2 -41 -7 -82 -10 -91 -4 -9 -2 -19 4 -23 14 -8 14 -51 0 -77 -14 -26
-15 -416 -1 -508 5 -36 7 -79 5 -96 -6 -37 14 -114 28 -114 7 0 9 -10 5 -27
-5 -16 -3 -29 5 -34 11 -6 14 -22 21 -91 1 -10 6 -18 10 -18 4 0 8 -11 8 -25
0 -14 5 -25 11 -25 6 0 8 -7 5 -16 -3 -8 -2 -12 4 -9 9 6 19 -21 23 -62 0 -12
4 -20 9 -17 4 2 10 -12 14 -33 4 -21 11 -46 16 -57 18 -35 -8 -41 -33 -7 -28
38 -37 39 -34 3 3 -43 6 -48 15 -27 8 18 9 18 10 -5 1 -14 1 -37 0 -52 -1 -16
3 -28 9 -28 6 0 11 -9 11 -19 0 -24 16 -36 24 -19 3 7 3 1 0 -14 -5 -20 -2
-30 10 -34 11 -4 14 -13 11 -25 -4 -13 2 -27 20 -43 15 -14 23 -30 19 -39 -3
-9 3 -24 15 -36 12 -12 21 -30 21 -40 0 -11 5 -23 12 -27 8 -5 9 -2 4 12 -4
10 -4 15 1 11 14 -15 11 -66 -5 -79 -9 -7 -13 -8 -10 -3 7 12 -19 51 -28 42
-4 -3 3 -25 14 -49 12 -23 20 -43 18 -45 -1 -2 -11 14 -22 34 -10 21 -24 41
-31 45 -6 5 -33 45 -59 90 -27 46 -54 89 -62 97 -7 7 -11 19 -8 26 3 8 -1 16
-9 19 -12 4 -82 119 -85 138 0 4 -16 35 -35 69 -19 33 -35 63 -35 65 0 2 -11
27 -25 55 -13 29 -22 57 -18 63 3 6 2 8 -2 3 -10 -9 -86 174 -90 217 -1 15 -6
31 -11 35 -17 11 -35 79 -28 105 3 13 1 33 -6 43 -9 16 -10 15 -5 -7 5 -23 5
-23 -6 -6 -9 15 -9 24 0 39 14 22 5 38 -10 17 -8 -11 -9 -9 -4 9 5 16 4 21 -4
17 -6 -4 -11 0 -11 9 0 9 5 13 10 10 15 -9 0 48 -14 57 -8 5 -7 8 2 8 17 0 15
68 -3 86 -13 13 -15 -178 -15 -1618 l0 -1632 43 42 c38 37 67 53 67 37 0 -3
-9 -25 -20 -47 -11 -23 -20 -43 -20 -45 0 -2 25 -3 56 -3 46 0 61 5 92 30 81
64 197 93 282 69 25 -6 63 -12 84 -11 26 0 35 -3 25 -8 -11 -7 -9 -13 9 -33
12 -13 22 -29 22 -35 0 -9 50 -12 191 -12 l191 0 46 41 c50 44 108 77 118 66
4 -3 -5 -29 -20 -57 l-26 -50 440 0 c321 0 439 3 434 11 -3 6 0 15 7 20 8 4
14 14 14 21 1 7 7 12 14 10 9 -2 11 3 7 14 -8 22 -18 72 -10 57 7 -17 25 -17
23 0 -3 27 3 62 8 47 3 -8 12 -18 19 -23 13 -7 24 -36 44 -114 10 -38 14 -43
40 -43 17 0 30 2 30 4 0 5 -53 150 -81 220 -10 27 -19 52 -19 57 0 12 -46 108
-73 150 -12 20 -45 75 -74 121 -59 96 -89 160 -104 227 -18 77 -28 170 -20
197 5 21 10 10 20 -52 22 -131 76 -262 183 -441 53 -88 89 -162 147 -303 17
-41 44 -97 59 -125 l27 -50 765 -1 c421 -1 757 0 747 3 -14 4 -18 11 -14 30 3
14 -1 41 -9 59 -16 39 -19 137 -4 164 8 15 5 23 -19 40 -18 12 -32 16 -36 10
-12 -19 -35 -11 -34 13 0 21 1 21 8 2 8 -19 8 -19 15 3 9 27 52 30 96 7 27
-14 33 -14 60 0 49 25 113 30 130 10 12 -15 11 -19 -10 -36 -19 -15 -35 -19
-67 -15 -45 6 -60 -9 -20 -19 33 -9 60 -9 81 0 16 7 17 5 11 -16 -29 -90 -31
-146 -8 -188 10 -16 15 -32 12 -35 -3 -3 -30 -12 -60 -20 -52 -13 -49 -14 128
-15 112 -1 184 3 188 9 3 5 17 10 30 10 13 0 30 7 39 15 8 8 21 15 28 15 11 0
11 -2 0 -9 -10 -6 -4 -13 22 -25 32 -15 93 -16 619 -15 321 0 589 4 596 8 7 5
11 19 9 32 -2 18 -10 25 -33 27 -43 5 -145 -17 -184 -39 -18 -11 -36 -18 -38
-15 -3 3 19 17 49 32 40 20 72 28 131 32 l77 5 0 2748 0 2749 -2790 0 -2790 0
2 -1032z m1983 567 c17 -2 80 -6 140 -9 61 -2 117 -7 125 -10 8 -2 80 -9 160
-16 178 -13 187 -15 195 -39 12 -40 -150 -408 -231 -523 -148 -210 -280 -315
-449 -359 -82 -22 -88 -22 -80 -9 4 7 -17 8 -62 5 -65 -6 -67 -5 -38 9 17 8
42 17 57 20 23 5 26 10 22 38 -3 18 -7 38 -9 44 -2 6 2 56 9 110 7 54 11 106
8 116 -3 11 -18 19 -49 24 -37 5 -48 12 -69 45 -13 21 -24 41 -24 43 0 3 -15
38 -34 78 -19 40 -44 100 -56 133 -13 33 -26 69 -30 80 -25 64 -31 83 -35 110
-3 17 -8 45 -11 62 -13 68 -17 67 219 59 117 -4 226 -9 242 -11z m2424 -1 c28
-6 31 -10 31 -44 0 -34 3 -38 30 -43 16 -4 39 -14 51 -24 44 -38 172 -168 197
-202 15 -20 34 -41 42 -48 12 -9 15 -35 13 -125 0 -62 -4 -121 -8 -131 -7 -18
0 -35 10 -25 18 17 38 139 41 243 2 66 9 130 16 143 18 35 97 80 173 98 55 13
101 15 212 11 78 -3 146 -8 152 -11 11 -7 -40 -109 -101 -199 -22 -33 -74 -93
-114 -134 -41 -41 -74 -80 -74 -86 0 -6 -3 -7 -6 -4 -4 4 -29 -11 -57 -33 -27
-22 -53 -40 -57 -40 -16 0 -19 -31 -6 -60 l13 -31 62 47 c53 40 60 48 49 62
-11 13 -10 15 9 10 16 -4 20 -2 16 8 -4 10 0 12 12 8 11 -5 29 6 57 32 71 69
192 217 247 302 30 45 56 80 59 78 16 -17 -93 -253 -133 -286 -8 -7 -15 -18
-15 -24 0 -7 -29 -41 -64 -76 -36 -35 -63 -68 -60 -72 3 -4 -1 -5 -9 -2 -8 3
-25 -7 -38 -23 -13 -15 -37 -34 -53 -41 -24 -11 -27 -15 -15 -23 11 -8 10 -9
-6 -5 -12 3 -31 -3 -45 -14 -14 -11 -20 -20 -13 -20 6 0 15 5 18 10 3 6 11 10
18 10 6 0 2 -6 -9 -14 -10 -8 -29 -12 -41 -9 -18 4 -25 -1 -33 -21 -6 -16 -17
-26 -30 -26 -11 0 -20 -4 -20 -8 0 -10 -98 -42 -126 -42 -15 0 -16 2 -5 9 8 5
16 15 17 23 2 7 8 31 13 53 6 22 6 44 2 48 -5 5 -27 -1 -49 -12 -33 -17 -42
-28 -48 -56 -3 -19 -4 -46 -2 -59 5 -23 1 -25 -58 -35 -34 -6 -119 -14 -189
-18 -107 -5 -125 -4 -120 8 3 8 -13 64 -35 123 -22 60 -40 115 -40 123 0 8 -7
30 -15 49 -8 19 -22 50 -30 69 -9 19 -20 37 -25 40 -5 3 -28 -7 -52 -22 -50
-32 -50 -34 -2 -133 19 -39 34 -76 34 -83 0 -7 7 -22 15 -33 8 -12 11 -24 8
-28 -3 -3 -1 -6 5 -6 7 0 12 -9 12 -19 0 -11 12 -29 28 -40 24 -18 25 -20 7
-21 l-20 -1 20 -10 c31 -14 -78 0 -167 21 -84 21 -178 58 -178 70 0 5 -20 16
-45 25 -24 10 -42 22 -39 27 3 5 -3 12 -15 15 -11 3 -18 9 -15 14 3 5 -5 9
-17 9 -46 0 -145 143 -264 380 -113 225 -146 307 -128 314 8 3 62 6 120 6 58
0 199 7 312 15 332 24 514 30 570 19z m-3699 -34 c0 -5 -2 -10 -4 -10 -3 0 -8
5 -11 10 -3 6 -1 10 4 10 6 0 11 -4 11 -10z m64 -39 c3 -4 -6 -6 -19 -3 -14 2
-25 6 -25 8 0 8 39 4 44 -5z m2502 -98 c86 -185 202 -412 242 -470 72 -106
191 -208 313 -269 l46 -24 68 -172 c38 -95 70 -168 72 -162 2 5 -10 74 -26
154 -16 80 -27 147 -25 149 2 2 61 -4 131 -13 70 -9 146 -19 169 -22 l40 -5
41 -127 c69 -213 113 -401 113 -485 0 -22 3 -38 6 -34 3 3 5 68 5 144 0 137
-21 295 -55 428 -9 32 -16 63 -16 67 0 4 33 8 74 8 41 0 109 5 151 11 42 6 79
8 82 5 8 -8 -13 -136 -58 -346 -40 -189 -82 -339 -125 -444 -41 -101 -19 -73
45 56 63 129 103 227 127 312 31 113 73 285 85 346 18 101 19 103 95 128 38
13 74 26 81 28 14 6 11 -20 -19 -176 -73 -383 -271 -900 -501 -1307 -47 -84
-77 -120 -63 -75 3 9 10 61 16 115 10 97 33 225 50 282 30 98 25 305 -9 417
-21 66 -112 128 -188 128 l-38 0 44 -21 c25 -11 51 -17 58 -15 7 3 15 1 18 -4
4 -6 1 -10 -6 -10 -7 0 -2 -9 11 -20 13 -11 27 -20 32 -20 4 0 8 -7 8 -15 0
-8 5 -15 11 -15 5 0 8 -4 4 -9 -3 -5 2 -17 11 -26 13 -13 15 -28 11 -71 -4
-36 -2 -52 5 -48 7 4 7 0 0 -12 -5 -11 -9 -62 -8 -115 1 -73 -2 -95 -11 -92
-11 4 -19 -27 -15 -58 1 -4 -3 -21 -8 -38 -5 -18 -5 -33 1 -36 5 -4 9 -16 9
-28 0 -18 -2 -20 -11 -7 -9 12 -10 11 -6 -7 3 -14 0 -21 -7 -20 -11 2 -11 -41
-1 -90 4 -17 2 -21 -10 -17 -8 4 -15 1 -15 -5 0 -6 5 -11 10 -11 7 0 7 -6 0
-20 -8 -14 -8 -26 0 -40 15 -27 2 -93 -16 -86 -8 3 -14 1 -14 -4 0 -6 7 -10
16 -10 9 0 12 -5 8 -11 -4 -7 -8 -37 -10 -68 -2 -31 -6 -87 -10 -126 -3 -38
-7 -97 -8 -130 -3 -89 -4 -93 -16 -75 -8 12 -10 9 -10 -12 0 -15 7 -34 16 -43
13 -13 14 -20 5 -38 l-11 -22 6 23 c3 12 2 22 -1 22 -16 0 -30 -29 -31 -65 -1
-21 -7 -41 -13 -43 -7 -2 -9 -19 -5 -45 4 -31 3 -38 -5 -27 -8 12 -11 8 -11
-17 0 -18 -4 -33 -9 -33 -5 0 -12 -19 -16 -42 -4 -24 -12 -49 -19 -57 -8 -11
-8 -13 1 -8 6 4 14 3 18 -2 3 -6 13 -7 22 -4 11 4 14 3 9 -5 -5 -8 4 -12 31
-12 85 0 152 -66 138 -137 -9 -51 -54 -93 -99 -93 -44 0 -46 14 -5 35 17 9 37
31 45 51 13 31 13 39 -2 69 -12 27 -24 36 -51 41 -41 8 -65 -2 -116 -46 -35
-32 -48 -60 -27 -60 6 0 10 -6 10 -14 0 -8 -6 -14 -12 -13 -32 1 -46 -4 -52
-19 -3 -8 -2 -13 3 -10 5 4 7 -3 4 -14 -3 -11 -10 -17 -15 -14 -6 4 -8 -1 -4
-14 4 -12 1 -26 -9 -35 -8 -9 -15 -23 -15 -31 0 -9 -4 -16 -10 -16 -12 0 -2
-90 12 -105 6 -6 12 -5 19 5 8 11 9 2 4 -30 -11 -72 -3 -219 14 -280 9 -30 8
-33 -3 -17 -12 16 -15 15 -29 -15 -9 -18 -13 -36 -10 -42 3 -5 1 -6 -5 -2 -7
4 -20 -10 -33 -38 -12 -25 -25 -43 -30 -40 -5 3 -6 10 -3 16 6 9 -50 8 -136
-4 -23 -3 -25 0 -22 32 5 66 21 100 48 100 27 0 43 27 64 103 7 26 15 45 18
42 3 -2 8 -33 11 -67 l6 -63 19 28 c16 23 20 57 26 210 9 203 20 260 81 406
40 96 81 248 93 349 8 62 -7 117 -34 132 -73 39 -258 -51 -248 -121 4 -30 47
-51 96 -47 31 3 34 5 17 12 -87 38 -67 92 44 118 43 9 53 9 75 -6 15 -9 26
-26 26 -39 0 -27 -37 -153 -80 -272 -56 -155 -77 -235 -101 -382 -13 -79 -26
-143 -29 -143 -4 0 -7 34 -8 75 -1 81 -14 116 -59 156 -87 79 -223 44 -223
-58 0 -40 23 -88 45 -97 23 -8 52 -7 40 2 -21 15 -45 62 -45 89 0 32 22 68 51
83 30 17 92 -5 127 -44 43 -49 56 -96 48 -178 -17 -183 -170 -428 -385 -613
-49 -43 -95 -91 -102 -107 -11 -28 -10 -31 44 -81 118 -110 127 -225 25 -320
-23 -22 -53 -43 -67 -49 -58 -22 -177 -39 -226 -32 -72 10 -145 12 -145 3 0
-15 -74 -31 -121 -27 -27 3 -52 1 -55 -3 -9 -15 -109 -10 -130 6 -10 8 -34 15
-52 15 -26 0 -37 6 -50 30 -14 24 -24 30 -53 30 -51 0 -124 24 -163 54 -32 24
-86 111 -86 138 -1 29 -16 41 -40 28 -29 -16 -39 -3 -12 16 12 8 22 20 22 26
0 7 -5 6 -14 -2 -13 -10 -13 -7 -3 19 9 24 8 39 -3 68 -7 21 -14 46 -15 56 -1
10 -8 23 -16 28 -12 7 -11 9 2 9 15 0 15 3 -1 35 -15 29 -50 108 -55 125 -1 3
-6 14 -10 25 -9 19 -9 19 -16 -5 -7 -24 -7 -24 -8 -2 -1 12 -5 22 -10 22 -5 0
-11 9 -14 21 -4 14 -2 19 8 16 10 -4 9 3 -3 34 -8 21 -19 39 -24 39 -5 0 -7 4
-4 9 3 5 -1 12 -10 15 -12 5 -15 2 -10 -9 4 -10 2 -14 -5 -9 -6 4 -8 19 -5 37
5 23 0 38 -19 63 -14 18 -25 38 -25 45 0 16 -40 50 -51 43 -13 -8 -11 20 2 33
8 8 -2 33 -35 90 -25 44 -46 84 -46 90 0 5 -9 20 -20 33 -26 29 -57 116 -66
178 -7 56 5 103 39 149 22 31 129 123 144 125 5 0 13 2 19 5 6 2 30 -2 52 -10
45 -16 55 -7 21 17 -14 10 -19 21 -15 32 3 9 2 22 -4 29 -5 6 -8 44 -6 83 3
72 -7 88 -19 31 -6 -25 -10 -29 -28 -23 -12 3 -23 7 -23 8 -2 1 -51 94 -157
296 -33 63 -86 162 -117 220 -32 58 -77 141 -100 185 -24 44 -77 136 -119 205
-107 176 -141 250 -141 311 0 15 -4 29 -8 31 -4 2 -48 59 -97 128 -50 69 -117
158 -150 198 -33 41 -66 82 -72 91 -11 14 -6 39 31 147 24 71 56 155 71 188
l27 58 41 -7 c107 -17 165 -25 207 -25 72 -1 74 -4 55 -101 -8 -46 -22 -108
-29 -136 -8 -29 -12 -53 -10 -53 8 0 83 169 99 223 16 54 16 54 62 61 25 3 48
4 51 1 10 -9 -21 -137 -53 -214 -18 -44 -31 -81 -29 -81 12 0 75 116 102 185
16 44 34 80 39 82 4 1 28 -38 52 -88 62 -126 141 -250 222 -345 63 -76 167
-174 183 -174 4 0 -8 19 -27 43 -64 80 -150 239 -213 395 -38 95 -74 196 -74
210 0 5 40 19 89 30 92 22 175 58 252 111 85 57 225 219 297 344 25 42 46 76
48 74 1 -1 -8 -54 -22 -117 -13 -63 -35 -180 -49 -260 -14 -80 -33 -183 -42
-230 -8 -47 -15 -94 -16 -105 0 -11 -6 -72 -13 -135 -16 -141 -27 -336 -19
-329 5 6 12 38 35 179 11 64 46 231 100 480 39 179 246 925 267 963 2 4 96 7
209 7 l205 0 45 -97z m-2261 13 c16 -12 21 -31 27 -117 13 -180 17 -214 27
-217 5 -2 8 -9 5 -17 -7 -18 75 -175 92 -175 8 0 14 -6 14 -13 0 -7 25 -37 55
-67 30 -30 51 -58 47 -62 -8 -8 -15 -6 -145 37 -44 15 -81 24 -84 21 -4 -4
-65 37 -111 75 -7 5 -17 7 -24 3 -6 -4 -8 -3 -5 2 7 13 -48 76 -58 66 -5 -4
-5 -2 -1 5 8 14 -23 55 -36 47 -4 -3 -5 1 -2 9 3 8 -2 21 -10 30 -9 9 -16 18
-16 21 0 3 -16 38 -35 77 -35 73 -47 150 -25 164 6 4 8 10 5 15 -3 4 7 22 21
39 14 17 22 31 17 31 -13 0 39 24 92 42 69 23 97 26 115 10 8 -7 24 -19 35
-26z m-565 -48 c0 -7 -12 -22 -27 -32 -27 -20 -25 -8 5 27 18 20 22 21 22 5z
m0 -38 c0 -5 -5 -10 -11 -10 -5 0 -7 5 -4 10 3 6 8 10 11 10 2 0 4 -4 4 -10z
m-41 -50 c4 0 13 6 20 13 10 10 11 9 6 -5 -4 -10 -17 -18 -30 -18 -28 0 -65
-43 -65 -76 0 -13 -4 -24 -10 -24 -18 0 -10 25 27 85 26 41 39 55 41 43 2 -10
7 -18 11 -18z m149 -15 c6 -14 18 -25 26 -25 9 0 13 -6 10 -14 -3 -8 11 -37
30 -65 20 -28 36 -53 36 -56 0 -4 21 -36 47 -73 58 -84 133 -163 146 -155 6 3
7 1 3 -5 -8 -14 95 -92 174 -132 30 -15 99 -42 152 -60 88 -30 98 -31 112 -17
9 9 16 19 16 24 0 15 128 202 186 274 l32 38 6 -25 c4 -13 6 -113 6 -220 l-1
-196 -109 7 c-141 9 -175 17 -174 38 1 12 -6 17 -27 17 -38 0 -41 1 -61 11
-10 6 -19 5 -23 -1 -3 -5 -16 -10 -28 -9 -20 1 -20 2 3 8 23 7 22 9 -19 20
-24 7 -53 10 -65 7 -12 -3 -28 0 -36 5 -13 9 -12 10 3 5 9 -3 17 -1 17 4 0 12
-37 23 -52 14 -7 -4 -10 -4 -6 1 9 10 -36 35 -66 36 -11 0 -15 3 -8 6 20 8
-33 44 -55 37 -12 -4 -14 -3 -5 3 10 7 8 14 -8 28 -11 10 -20 13 -20 7 0 -6 5
-13 10 -15 6 -3 5 -4 -2 -3 -7 1 -15 12 -18 24 -3 13 -18 31 -33 41 -16 10
-29 22 -30 27 -1 5 -5 8 -8 7 -4 -1 -6 5 -5 14 0 9 -9 22 -22 29 -24 12 -72
75 -72 93 0 6 -4 11 -10 11 -5 0 -10 5 -10 11 0 5 5 7 10 4 15 -9 12 8 -4 31
-8 10 -18 16 -22 11 -4 -4 -2 -7 4 -7 7 0 12 -5 12 -11 0 -8 -5 -7 -15 1 -9 7
-13 21 -10 31 4 13 1 19 -9 19 -9 0 -16 5 -16 10 0 6 6 10 13 10 8 0 7 4 -3
10 -12 8 -12 12 -2 18 10 7 10 14 -3 38 -8 16 -15 37 -15 47 0 9 -4 17 -10 17
-5 0 -10 5 -10 10 0 20 27 9 38 -15z m-61 -11 c-3 -3 -12 -4 -19 -1 -8 3 -5 6
6 6 11 1 17 -2 13 -5z m23 -36 c0 -6 -6 -5 -15 2 -8 7 -15 14 -15 16 0 2 7 1
15 -2 8 -4 15 -11 15 -16z m-210 -84 c0 -4 -8 -12 -17 -19 -15 -11 -15 -15 -4
-29 8 -9 9 -16 3 -16 -6 0 -12 5 -14 11 -2 6 -14 -12 -27 -41 -13 -28 -25 -49
-28 -47 -7 8 66 147 77 147 6 0 10 -3 10 -6z m-30 -98 c0 -3 -4 -8 -10 -11 -5
-3 -10 -1 -10 4 0 6 5 11 10 11 6 0 10 -2 10 -4z m187 -38 c-3 -8 -6 -5 -6 6
-1 11 2 17 5 13 3 -3 4 -12 1 -19z m-132 2 c-3 -5 -12 -10 -18 -10 -7 0 -6 4
3 10 19 12 23 12 15 0z m115 -15 c7 -8 9 -15 6 -15 -4 0 -14 7 -22 15 -9 8
-11 15 -6 15 5 0 15 -7 22 -15z m-165 -15 c-10 -11 -22 -17 -28 -13 -6 4 -3
12 8 20 28 20 41 16 20 -7z m-98 -80 c-11 -29 -27 -41 -27 -20 0 14 23 50 32
50 3 0 1 -13 -5 -30z m146 -10 c-5 -19 -23 -39 -23 -25 0 9 20 45 24 45 2 0 2
-9 -1 -20z m217 10 c0 -5 -2 -10 -4 -10 -3 0 -8 5 -11 10 -3 6 -1 10 4 10 6 0
11 -4 11 -10z m26 -35 c9 -8 11 -15 6 -15 -5 0 -15 7 -22 15 -7 8 -9 15 -6 15
4 0 14 -7 22 -15z m-423 -27 c-3 -13 -11 -29 -16 -36 -8 -10 -7 -16 4 -23 11
-7 11 -9 -3 -9 -11 0 -18 -8 -18 -21 0 -11 -7 -27 -15 -35 -21 -21 -23 -29 34
119 13 33 21 36 14 5z m1526 -204 c1 -12 9 -25 19 -29 16 -7 15 -8 -3 -15 -11
-5 -32 -9 -47 -9 l-27 -1 5 63 c2 34 7 73 10 87 6 22 8 20 24 -25 10 -27 19
-60 19 -71z m-985 34 c3 -24 10 -146 16 -273 20 -437 62 -644 161 -800 30 -47
37 -75 19 -75 -6 0 -31 10 -55 21 -25 12 -49 18 -53 15 -10 -11 44 -159 102
-276 29 -58 112 -195 185 -305 172 -257 233 -356 276 -447 39 -83 65 -175 65
-230 0 -50 -36 -159 -63 -189 -12 -14 -19 -20 -16 -14 16 29 30 104 30 159 0
136 -57 274 -226 547 -5 9 -20 34 -33 55 -12 22 -39 65 -60 97 -241 372 -312
517 -376 771 -19 72 -40 169 -47 216 -16 109 -16 411 0 515 18 114 51 255 61
255 4 0 10 -19 14 -42z m-610 -29 c-8 -8 -14 -24 -14 -34 0 -10 -3 -16 -6 -12
-4 3 0 27 7 52 10 34 15 41 20 28 4 -10 0 -25 -7 -34z m-33 -100 c-6 -16 -10
-18 -10 -7 -1 22 12 55 16 42 2 -6 -1 -22 -6 -35z m-24 -81 c-3 -8 -6 -5 -6 6
-1 11 2 17 5 13 3 -3 4 -12 1 -19z m0 -62 c-1 -19 -6 -31 -10 -27 -7 7 0 61 8
61 2 0 3 -15 2 -34z m139 -263 c-10 -10 -19 5 -10 18 6 11 8 11 12 0 2 -7 1
-15 -2 -18z m4141 -99 c-3 -3 -12 -4 -19 -1 -8 3 -5 6 6 6 11 1 17 -2 13 -5z
m-3720 -271 c-3 -10 -5 -2 -5 17 0 19 2 27 5 18 2 -10 2 -26 0 -35z m3838 -23
c3 -5 1 -10 -4 -10 -6 0 -11 5 -11 10 0 6 2 10 4 10 3 0 8 -4 11 -10z m-3790
-207 c-3 -25 -9 -42 -12 -39 -3 3 -2 31 2 63 5 32 10 50 13 39 2 -10 1 -38 -3
-63z m-298 -130 c-3 -10 -5 -2 -5 17 0 19 2 27 5 18 2 -10 2 -26 0 -35z m23
-33 c0 -5 -2 -10 -4 -10 -3 0 -8 5 -11 10 -3 6 -1 10 4 10 6 0 11 -4 11 -10z
m311 -288 c8 -38 -3 -42 -19 -7 -15 33 -15 48 0 43 7 -3 15 -19 19 -36z m19
-68 c0 -8 -5 -12 -10 -9 -6 4 -8 11 -5 16 9 14 15 11 15 -7z m-33 -66 c-3 -8
-6 -5 -6 6 -1 11 2 17 5 13 3 -3 4 -12 1 -19z m-160 -20 c-3 -8 -6 -5 -6 6 -1
11 2 17 5 13 3 -3 4 -12 1 -19z m223 -93 c0 -8 -2 -15 -4 -15 -2 0 -6 7 -10
15 -3 8 -1 15 4 15 6 0 10 -7 10 -15z m34 -30 c3 -8 1 -15 -4 -15 -6 0 -10 7
-10 15 0 8 2 15 4 15 2 0 6 -7 10 -15z m34 -84 c9 -24 8 -29 -3 -25 -8 3 -11
12 -8 20 3 8 0 14 -6 14 -6 0 -11 7 -11 16 0 23 17 8 28 -25z m87 -191 c3 -6
-1 -7 -9 -4 -18 7 -21 14 -7 14 6 0 13 -4 16 -10z m3418 -25 c-7 -21 -13 -19
-13 6 0 11 4 18 10 14 5 -3 7 -12 3 -20z m-3393 -23 c0 -15 -2 -15 -10 -2 -13
20 -13 33 0 25 6 -3 10 -14 10 -23z m3371 -49 c-8 -15 -10 -15 -11 -2 0 17 10
32 18 25 2 -3 -1 -13 -7 -23z m353 3 c33 -28 50 -106 22 -106 -8 0 -18 5 -22
12 -5 8 -2 9 9 5 10 -3 17 -2 17 3 0 6 -8 10 -19 10 -20 0 -41 20 -45 42 -1 7
-5 19 -10 27 -7 10 -3 12 15 7 20 -6 21 -5 6 4 -20 13 -41 4 -33 -16 4 -10 -2
-12 -27 -7 -18 3 -33 10 -35 15 -2 4 -10 8 -18 8 -9 0 -12 -4 -9 -10 3 -6 -4
-10 -17 -10 -33 -1 -99 -33 -140 -69 -46 -40 -63 -41 -20 -1 18 17 37 30 43
30 5 0 9 4 9 8 0 10 65 42 85 42 8 0 15 4 15 9 0 12 30 18 95 19 39 1 57 -4
79 -22z m-2550 -2 c10 -25 -1 -29 -14 -5 -6 12 -7 21 -1 21 5 0 12 -7 15 -16z
m-1134 -30 c0 -8 -4 -12 -10 -9 -5 3 -10 13 -10 21 0 8 5 12 10 9 6 -3 10 -13
10 -21z m-317 -54 c10 -16 16 -30 13 -30 -2 0 -14 14 -26 30 -12 17 -18 30
-13 30 5 0 17 -13 26 -30z m321 15 c-4 -8 -8 -15 -10 -15 -2 0 -4 7 -4 15 0 8
4 15 10 15 5 0 7 -7 4 -15z m3296 -19 c0 -8 -4 -18 -10 -21 -5 -3 -10 3 -10
14 0 12 5 21 10 21 6 0 10 -6 10 -14z m-3257 -23 c8 -7 -11 -33 -24 -33 -5 0
-9 9 -9 20 0 19 20 27 33 13z m3287 -17 c0 -3 -4 -8 -10 -11 -5 -3 -10 -1 -10
4 0 6 5 11 10 11 6 0 10 -2 10 -4z m-3250 -36 c0 -5 -2 -10 -4 -10 -3 0 -8 5
-11 10 -3 6 -1 10 4 10 6 0 11 -4 11 -10z m-316 -40 c-6 -5 -24 21 -24 34 0 6
6 1 14 -10 8 -10 12 -21 10 -24z m326 10 c-8 -5 -17 -7 -19 -4 -3 3 1 9 9 14
8 5 17 7 19 4 3 -3 -1 -9 -9 -14z m31 -43 c-13 -13 -26 -3 -16 12 3 6 11 8 17
5 6 -4 6 -10 -1 -17z m-305 -28 c14 -22 23 -43 21 -45 -3 -3 -15 12 -28 33
-29 47 -32 53 -25 53 3 0 17 -18 32 -41z m344 -19 c0 -5 -4 -10 -10 -10 -5 0
-10 5 -10 10 0 6 5 10 10 10 6 0 10 -4 10 -10z m40 -74 c0 -5 -7 -1 -15 10 -8
10 -14 24 -14 29 0 6 6 1 14 -9 8 -11 15 -24 15 -30z m-324 7 c-7 -7 -26 7
-26 19 0 6 6 6 15 -2 9 -7 13 -15 11 -17z m343 -41 c8 -14 6 -18 -10 -19 -21
-2 -22 -1 -13 21 8 20 11 20 23 -2z m-279 -2 c0 -5 -4 -10 -10 -10 -5 0 -10 5
-10 10 0 6 5 10 10 10 6 0 10 -4 10 -10z m24 -5 c-4 -8 -1 -15 5 -15 6 0 11
-5 11 -12 0 -8 -6 -7 -16 4 -9 9 -13 21 -10 27 10 16 16 13 10 -4z m12 -72
c20 -27 16 -38 -6 -18 -20 18 -26 35 -14 35 4 0 13 -8 20 -17z m49 -13 c3 -5
-1 -10 -10 -10 -9 0 -13 5 -10 10 3 6 8 10 10 10 2 0 7 -4 10 -10z m235 6 c0
-11 -19 -15 -25 -6 -3 5 1 10 9 10 9 0 16 -2 16 -4z m-20 -30 c0 -3 -4 -8 -10
-11 -5 -3 -10 -1 -10 4 0 6 5 11 10 11 6 0 10 -2 10 -4z m50 -11 c0 -8 -2 -15
-4 -15 -2 0 -6 7 -10 15 -3 8 -1 15 4 15 6 0 10 -7 10 -15z m2869 -22 c0 -33
-1 -35 -9 -15 -8 20 -4 52 6 52 2 0 4 -17 3 -37z m-3118 -25 c19 -29 42 -60
53 -69 10 -8 16 -22 13 -30 -4 -10 -8 -8 -12 9 -4 12 -11 22 -15 22 -8 0 -61
75 -72 103 -13 31 -1 18 33 -35z m886 -54 c-3 -3 -12 -4 -19 -1 -8 3 -5 6 6 6
11 1 17 -2 13 -5z m77 -26 c9 -17 16 -34 16 -37 0 -8 -26 32 -33 52 -10 28 0
19 17 -15z m-166 -33 c-11 -20 -23 -34 -25 -31 -6 6 29 66 39 66 4 0 -2 -16
-14 -35z m-474 -25 c-6 -5 -24 21 -24 34 0 6 6 1 14 -10 8 -10 12 -21 10 -24z
m-27 -22 c-3 -8 -6 -5 -6 6 -1 11 2 17 5 13 3 -3 4 -12 1 -19z m-183 -13 c3
-8 1 -15 -3 -15 -5 0 -11 7 -15 15 -3 8 -1 15 3 15 5 0 11 -7 15 -15z m643
-15 c-6 -16 -13 -28 -15 -26 -6 6 10 56 18 56 5 0 3 -13 -3 -30z m273 -25 c0
-5 -5 -3 -10 5 -5 8 -10 20 -10 25 0 6 5 3 10 -5 5 -8 10 -19 10 -25z m-669
-30 c9 -26 8 -28 -5 -15 -15 15 -20 34 -16 60 2 17 1 18 21 -45z m-213 8 c2
-29 0 -29 -17 5 -9 17 -9 22 1 22 8 0 15 -12 16 -27z m3645 -11 c-3 -7 -12
-11 -20 -8 -23 9 -63 -5 -63 -21 0 -9 -6 -13 -15 -10 -17 7 -30 -10 -28 -38 1
-16 1 -16 -3 -2 -7 23 -10 22 -74 -18 -30 -19 -59 -35 -65 -35 -12 0 110 80
124 80 5 0 11 4 13 8 2 5 22 20 45 33 46 28 94 34 86 11z m-3046 -39 c-3 -10
-5 -2 -5 17 0 19 2 27 5 18 2 -10 2 -26 0 -35z m3023 23 c0 -3 -4 -8 -10 -11
-5 -3 -10 -1 -10 4 0 6 5 11 10 11 6 0 10 -2 10 -4z m-3590 -49 c0 -5 -4 -5
-10 -2 -5 3 -10 14 -10 23 0 15 2 15 10 2 5 -8 10 -19 10 -23z m3578 3 c-15
-23 -28 -26 -28 -7 0 17 10 27 27 27 11 0 11 -4 1 -20z m-58 0 c0 -5 -4 -10
-10 -10 -5 0 -10 5 -10 10 0 6 5 10 10 10 6 0 10 -4 10 -10z m-2625 -40 c3 -5
1 -10 -4 -10 -6 0 -11 5 -11 10 0 6 2 10 4 10 3 0 8 -4 11 -10z m-872 -20 c3
-11 1 -18 -4 -14 -5 3 -9 12 -9 20 0 20 7 17 13 -6z m196 -35 l0 -20 -9 20
c-5 11 -9 27 -9 35 -1 13 0 13 9 0 5 -8 9 -24 9 -35z m380 -10 c-1 -29 -1 -29
-9 -5 -4 14 -8 34 -9 45 -1 16 1 17 9 5 5 -8 9 -28 9 -45z m2931 46 c0 -5 -11
-11 -25 -13 -14 -3 -25 -3 -25 -1 0 3 34 19 48 22 1 1 2 -3 2 -8z m-190 -32
c0 -5 -8 -9 -18 -9 -11 0 -37 -13 -58 -28 -64 -46 -146 -79 -129 -52 3 6 13
10 21 10 8 0 20 5 27 11 24 21 142 86 150 82 4 -2 7 -8 7 -14z m-3290 -13 c0
-8 3 -23 6 -33 6 -16 5 -16 -9 2 -19 23 -22 45 -7 45 6 0 10 -6 10 -14z m171
-171 c-9 -37 -10 -36 -6 23 1 34 -1 65 -6 68 -5 3 -9 10 -9 15 0 6 5 7 10 4 6
-3 11 6 12 22 1 15 3 1 5 -32 2 -33 -1 -78 -6 -100z m694 125 c3 -5 1 -10 -4
-10 -6 0 -11 5 -11 10 0 6 2 10 4 10 3 0 8 -4 11 -10z m-840 -50 c5 -17 4 -22
-3 -15 -5 6 -13 21 -17 35 -5 17 -4 22 3 15 5 -5 13 -21 17 -35z m860 21 c3
-5 1 -12 -5 -16 -5 -3 -10 1 -10 9 0 18 6 21 15 7z m63 -16 c-3 -3 -9 2 -12
12 -6 14 -5 15 5 6 7 -7 10 -15 7 -18z m2112 0 c0 -9 -6 -12 -15 -9 -8 4 -12
10 -9 15 8 14 24 10 24 -6z m-303 -14 c11 -18 8 -19 -45 -23 -31 -2 -59 -2
-62 0 -3 2 6 12 19 23 30 25 73 25 88 0z m603 9 c0 -5 -5 -10 -11 -10 -5 0 -7
5 -4 10 3 6 8 10 11 10 2 0 4 -4 4 -10z m-381 -21 c1 8 3 12 6 9 3 -3 2 -13
-1 -22 -5 -14 -9 -15 -15 -4 -5 7 -8 20 -8 28 0 10 3 8 9 -5 5 -12 9 -14 9 -6z
m351 -3 c0 -2 -7 -9 -15 -16 -13 -11 -14 -10 -9 4 5 14 24 23 24 12z m-3303
-38 c-3 -7 -5 -2 -5 12 0 14 2 19 5 13 2 -7 2 -19 0 -25z m2777 16 c22 -8 22
-74 0 -74 -8 0 -12 -4 -9 -10 3 -5 1 -10 -6 -10 -8 0 -8 -4 1 -15 9 -10 9 -15
1 -15 -6 0 -11 -7 -11 -15 0 -17 -42 -37 -68 -33 -9 2 -25 12 -36 22 -18 18
-18 19 -1 33 16 11 17 13 2 13 -9 0 -23 10 -31 22 -16 22 -16 22 -16 -9 0 -18
-4 -35 -10 -38 -6 -4 -10 13 -10 44 0 28 3 50 8 49 4 -2 17 7 30 20 18 18 33
22 81 22 33 0 66 -3 75 -6z m486 -14 c0 -5 -5 -10 -11 -10 -5 0 -7 5 -4 10 3
6 8 10 11 10 2 0 4 -4 4 -10z m-3241 -77 c0 -25 -1 -26 -9 -8 -12 27 -12 35 0
35 6 0 10 -12 9 -27z m3139 -9 c-4 -3 -12 5 -18 18 -12 22 -12 22 6 6 10 -10
15 -20 12 -24z m-3014 -12 c-4 -18 -10 -32 -15 -32 -11 0 -11 1 2 39 14 40 21
35 13 -7z m856 -17 c0 -5 -5 -3 -10 5 -5 8 -10 20 -10 25 0 6 5 3 10 -5 5 -8
10 -19 10 -25z m2060 30 c0 -2 -9 -9 -20 -15 -16 -9 -20 -8 -20 5 0 8 9 15 20
15 11 0 20 -2 20 -5z m-67 -12 c-7 -2 -19 -2 -25 0 -7 3 -2 5 12 5 14 0 19 -2
13 -5z m122 -23 c-3 -5 -13 -10 -21 -10 -8 0 -12 5 -9 10 3 6 13 10 21 10 8 0
12 -4 9 -10z m-3098 -47 c-3 -10 -5 -4 -5 12 0 17 2 24 5 18 2 -7 2 -21 0 -30z
m104 -6 c-8 -8 -11 -7 -11 4 0 20 13 34 18 19 3 -7 -1 -17 -7 -23z m909 13 c0
-5 -5 -10 -11 -10 -5 0 -7 5 -4 10 3 6 8 10 11 10 2 0 4 -4 4 -10z m1644 -33
c-19 -11 -34 0 -34 24 0 19 1 19 24 2 19 -14 21 -20 10 -26z m-2663 -67 c-5
-3 -13 -18 -20 -35 -8 -22 -10 -23 -5 -5 3 14 8 45 11 70 l7 45 7 -35 c4 -19
4 -37 0 -40z m596 38 c-3 -8 -6 -5 -6 6 -1 11 2 17 5 13 3 -3 4 -12 1 -19z
m2140 16 c-3 -3 -12 -4 -19 -1 -8 3 -5 6 6 6 11 1 17 -2 13 -5z m-2637 -14 c0
-5 -2 -10 -4 -10 -3 0 -8 5 -11 10 -3 6 -1 10 4 10 6 0 11 -4 11 -10z m2525
-20 c-3 -5 -10 -10 -16 -10 -5 0 -9 5 -9 10 0 6 7 10 16 10 8 0 12 -4 9 -10z
m-1975 -62 c0 -3 -3 -14 -6 -23 -6 -14 -9 -12 -19 12 -7 16 -16 40 -20 54 -7
23 -6 22 19 -6 14 -16 26 -33 26 -37z m399 17 c0 -5 -4 -3 -9 5 -5 8 -9 22 -9
30 0 16 17 -16 18 -35z m1481 25 c-24 -15 -37 -11 -16 5 11 8 22 12 25 9 3 -3
-1 -9 -9 -14z m167 -4 c0 -8 -8 -13 -19 -11 -10 2 -18 0 -18 -4 0 -4 -13 -6
-30 -3 -44 6 -37 20 13 25 23 2 45 4 48 5 3 1 6 -4 6 -12z m139 -12 c13 -14
24 -36 24 -49 0 -13 5 -25 10 -27 17 -5 43 -89 31 -101 -15 -15 -31 1 -52 50
-18 41 -21 45 -46 38 -26 -6 -27 -6 -10 13 22 24 22 42 0 42 -13 0 -14 3 -5
12 18 18 15 28 -10 38 -22 8 -21 9 6 9 19 1 37 -8 52 -25z m-1820 -81 c-3 -4
-6 -1 -6 5 0 7 -7 12 -15 12 -19 0 -19 0 1 -39 17 -35 16 -45 -5 -32 -7 5 -15
33 -17 65 l-4 57 26 -31 c15 -17 24 -34 20 -37z m-994 5 c-9 -16 -20 -28 -24
-28 -5 0 -2 11 7 24 9 14 13 31 8 42 -6 16 -5 17 9 4 15 -14 15 -17 0 -42z
m652 16 c4 -10 1 -14 -6 -12 -15 5 -23 28 -10 28 5 0 13 -7 16 -16z m1976 -4
c36 -36 19 -75 -41 -99 -71 -26 -96 81 -26 109 34 13 45 12 67 -10z m-2690
-15 c-7 -9 -15 -13 -17 -11 -7 7 7 26 19 26 6 0 6 -6 -2 -15z m709 -60 c-1
-15 -4 -13 -14 10 -19 40 -18 67 0 35 8 -14 14 -34 14 -45z m44 17 c7 -38 3
-37 -14 2 -11 24 -12 33 -3 29 6 -2 14 -16 17 -31z m2949 10 c9 -4 -49 -8
-130 -8 -82 -1 -136 2 -122 6 31 10 229 11 252 2z m-3697 -22 c-10 -11 -22
-20 -28 -20 -5 0 1 9 14 20 31 25 37 25 14 0z m3411 5 c19 -14 19 -14 -1 -15
-17 0 -17 -2 -5 -10 9 -6 10 -10 3 -10 -17 0 -44 30 -38 41 8 13 18 11 41 -6z
m387 -7 c9 -5 17 -12 18 -16 0 -4 2 -15 4 -24 4 -24 -96 -91 -112 -75 -3 4 1
7 10 7 10 0 17 4 17 10 0 5 11 12 25 16 28 7 56 34 35 34 -10 0 -10 3 -1 14
10 12 8 17 -9 26 -12 7 -33 10 -45 8 -16 -4 -22 -1 -18 8 5 14 40 10 76 -8z
m-3849 0 c-4 -7 -14 -21 -22 -30 -17 -20 -10 -23 19 -8 38 21 18 1 -26 -25
-25 -14 -50 -23 -55 -20 -6 4 -9 1 -8 -7 2 -8 -4 -12 -16 -10 -10 2 -15 -1
-12 -6 3 -6 -6 -13 -22 -16 -15 -4 -36 -9 -47 -12 -11 -2 6 9 37 26 31 16 59
34 63 40 3 5 18 10 33 11 15 0 22 3 16 5 -7 3 -1 17 15 34 28 32 36 37 25 18z
m3143 6 c-3 -3 -12 -4 -19 -1 -8 3 -5 6 6 6 11 1 17 -2 13 -5z m53 -15 c0 -5
6 -7 13 -3 9 5 9 4 0 -6 -9 -10 -15 -10 -26 -2 -8 7 -17 9 -20 5 -4 -3 -7 -1
-7 5 0 7 9 12 20 12 11 0 20 -5 20 -11z m523 4 c-13 -2 -33 -2 -45 0 -13 2 -3
4 22 4 25 0 35 -2 23 -4z m-436 -9 c-3 -3 -12 -4 -19 -1 -8 3 -5 6 6 6 11 1
17 -2 13 -5z m-2453 -20 c3 -8 2 -12 -4 -9 -6 3 -10 10 -10 16 0 14 7 11 14
-7z m2267 -7 c-10 -9 -11 -8 -5 6 3 10 9 15 12 12 3 -3 0 -11 -7 -18z m706 17
c-3 -3 -12 -4 -19 -1 -8 3 -5 6 6 6 11 1 17 -2 13 -5z m-3040 -26 c-3 -8 -6
-5 -6 6 -1 11 2 17 5 13 3 -3 4 -12 1 -19z m3033 8 c0 -2 -7 -7 -16 -10 -8 -3
-12 -2 -9 4 6 10 25 14 25 6z m-780 -30 c0 -16 -18 -31 -27 -22 -8 8 5 36 17
36 5 0 10 -6 10 -14z m20 -55 c14 -27 13 -41 -3 -41 -11 0 -37 39 -37 55 0 14
31 2 40 -14z m421 -44 c-8 -8 -11 0 -10 29 1 39 1 39 11 11 7 -21 7 -32 -1
-40z m-2679 20 c-5 -19 -11 -24 -21 -18 -11 7 -10 12 5 28 24 24 25 23 16 -10z
m2359 -7 c7 0 10 -2 7 -5 -11 -12 -38 9 -37 29 0 21 0 21 9 -1 5 -13 15 -23
21 -23z m62 33 c-7 -2 -19 -2 -25 0 -7 3 -2 5 12 5 14 0 19 -2 13 -5z m442 -3
c-3 -5 -1 -10 4 -10 6 0 11 -4 11 -10 0 -5 -3 -9 -7 -8 -8 1 -50 -15 -85 -33
-10 -5 -28 -9 -42 -9 -13 0 -29 -7 -36 -15 -14 -17 -50 -20 -50 -5 0 6 8 10
19 10 10 0 24 7 32 16 8 10 23 14 41 12 15 -3 28 -1 28 4 0 4 10 8 23 8 27 0
41 10 50 33 3 9 9 17 12 17 4 0 3 -4 0 -10z m53 -2 c-2 -6 -10 -14 -16 -16 -7
-2 -10 2 -6 12 7 18 28 22 22 4z m49 6 c-3 -3 -12 -4 -19 -1 -8 3 -5 6 6 6 11
1 17 -2 13 -5z m-3964 -21 c-7 -2 -19 -2 -25 0 -7 3 -2 5 12 5 14 0 19 -2 13
-5z m3562 -3 c3 -5 -3 -10 -15 -10 -12 0 -18 5 -15 10 3 6 10 10 15 10 5 0 12
-4 15 -10z m-3612 -7 c-7 -2 -19 -2 -25 0 -7 3 -2 5 12 5 14 0 19 -2 13 -5z
m907 -23 c0 -5 -4 -10 -10 -10 -5 0 -10 5 -10 10 0 6 5 10 10 10 6 0 10 -4 10
-10z m2610 -1 c0 -8 15 -9 46 -4 64 9 97 -23 60 -61 -24 -23 -39 -17 -33 14 5
23 2 28 -14 29 -10 1 -19 -3 -19 -9 0 -6 -11 -3 -25 6 -13 9 -42 20 -62 25
l-38 9 43 1 c25 1 42 -4 42 -10z m-140 -7 c0 -5 10 -8 21 -8 12 1 24 -5 27
-13 4 -11 -2 -12 -29 -7 -19 5 -39 8 -46 9 -7 0 -14 6 -17 14 -4 9 3 13 19 13
14 0 25 -4 25 -8z m-2350 -18 c0 -8 -5 -12 -10 -9 -6 4 -8 11 -5 16 9 14 15
11 15 -7z m2105 -14 c3 -5 2 -10 -4 -10 -5 0 -13 5 -16 10 -3 6 -2 10 4 10 5
0 13 -4 16 -10z m70 -8 c-11 -2 -27 -11 -37 -19 -9 -8 -18 -10 -22 -5 -3 6 1
13 10 16 8 3 13 10 10 14 -3 5 9 6 27 3 23 -3 27 -6 12 -9z m220 -22 c3 -5 17
-10 31 -10 13 0 24 -4 24 -9 0 -6 -9 -8 -20 -6 -16 3 -22 -3 -27 -26 -8 -41
-33 -38 -32 4 0 17 3 26 6 19 2 -6 9 -10 14 -6 14 8 11 24 -6 24 -8 0 -15 5
-15 10 0 6 4 10 9 10 6 0 13 -4 16 -10z m-2334 -37 c-4 -35 -5 -36 -12 -13
-11 39 -10 50 4 50 9 0 12 -11 8 -37z m2072 0 c-7 -2 -19 -2 -25 0 -7 3 -2 5
12 5 14 0 19 -2 13 -5z m386 -21 c-7 -3 -16 -8 -19 -11 -10 -13 -60 -41 -60
-34 1 13 34 49 50 55 8 3 22 3 29 0 13 -5 13 -6 0 -10z m-436 -6 c4 -10 1 -13
-9 -9 -15 6 -19 23 -5 23 5 0 11 -7 14 -14z m-2173 -6 c-11 -7 -6 -10 20 -10
26 0 31 3 20 10 -12 8 -11 10 6 10 15 0 21 -6 20 -17 -1 -22 -15 -33 -41 -32
-16 1 -16 2 5 9 24 8 24 8 -7 9 -28 1 -31 -2 -28 -24 1 -14 -2 -25 -6 -25 -5
0 -9 18 -9 40 0 31 4 40 18 40 14 0 15 -2 2 -10z m150 -25 c0 -10 -45 -23 -55
-17 -5 4 4 10 20 13 17 4 31 7 33 8 1 0 2 -1 2 -4z m-103 -41 c-3 -3 -12 -4
-19 -1 -8 3 -5 6 6 6 11 1 17 -2 13 -5z"/>
<path d="M1706 5054 c-23 -23 -17 -58 11 -62 16 -2 25 -12 28 -30 8 -39 36
-121 56 -167 21 -45 19 -32 -11 95 -11 50 -16 86 -10 88 19 7 55 41 43 42 -7
0 -13 9 -13 20 0 15 -7 20 -29 20 -16 0 -36 3 -44 6 -8 3 -22 -2 -31 -12z"/>
<path d="M2352 4999 c-12 -19 -20 -20 -85 -16 l-72 6 67 -12 c37 -7 75 -20 84
-29 16 -16 15 -23 -24 -121 -23 -58 -42 -109 -42 -115 0 -25 -130 -31 -155 -6
-12 12 -27 15 -63 10 -26 -3 -75 -9 -109 -12 -78 -8 -83 -24 -8 -24 40 0 57
-4 61 -15 8 -20 101 -18 108 1 4 9 32 14 93 16 l88 3 17 35 c9 19 29 75 45
124 24 75 32 90 54 98 25 8 38 32 39 66 0 8 -15 12 -43 12 -32 0 -45 -5 -55
-21z"/>
<path d="M2038 4993 c23 -2 61 -2 85 0 23 2 4 4 -43 4 -47 0 -66 -2 -42 -4z"/>
<path d="M1827 4720 c7 -25 39 -45 48 -30 3 5 -1 10 -10 10 -9 0 -19 9 -22 20
-3 11 -9 20 -13 20 -5 0 -6 -9 -3 -20z"/>
<path d="M4174 5062 c-32 -2 -44 -8 -52 -26 -10 -23 -7 -28 35 -54 9 -6 6 -32
-12 -107 -14 -55 -29 -108 -35 -117 -5 -10 -10 -24 -10 -32 0 -18 -94 -32
-142 -21 -80 17 -137 17 -154 1 -17 -18 -30 -19 -98 -10 -34 5 -46 11 -46 23
0 10 -4 21 -9 26 -15 17 -67 179 -63 197 4 21 19 25 132 37 l85 9 -103 -1
c-89 -1 -105 1 -113 16 -7 12 -23 17 -54 17 -44 0 -45 -1 -45 -31 0 -25 6 -33
30 -42 33 -12 36 -18 56 -97 8 -30 26 -81 41 -112 l27 -58 82 0 c60 0 87 -4
98 -15 8 -9 33 -15 59 -15 31 0 47 5 51 15 4 11 23 15 79 15 48 0 78 4 84 13
14 18 93 229 93 249 0 27 11 48 26 48 17 0 36 34 28 54 -7 19 -19 22 -70 18z"/>
<path d="M3983 5003 c15 -2 39 -2 55 0 15 2 2 4 -28 4 -30 0 -43 -2 -27 -4z"/>
<path d="M3838 4993 c18 -2 45 -2 60 0 15 2 0 4 -33 4 -33 0 -45 -2 -27 -4z"/>
<path d="M3725 4530 c-3 -5 2 -19 12 -30 22 -27 149 -120 163 -120 16 0 16 57
-1 75 -5 5 -9 19 -9 31 0 49 -8 54 -85 54 -41 0 -76 -4 -80 -10z"/>
<path d="M3295 4157 c-45 -26 -55 -55 -31 -93 25 -37 64 -31 57 10 -3 13 41
57 67 67 13 5 22 15 20 22 -8 22 -70 19 -113 -6z"/>
<path d="M2586 4125 c-8 -21 9 -61 29 -69 49 -19 135 12 135 48 0 33 -151 53
-164 21z"/>
<path d="M2290 3965 c0 -12 61 -65 75 -65 9 0 25 -5 36 -10 11 -7 19 -7 19 -1
0 5 -13 12 -29 16 -15 3 -41 19 -56 35 -26 27 -45 38 -45 25z"/>
<path d="M4049 3543 c-12 -16 -12 -17 1 -7 8 6 22 14 30 17 13 5 12 6 -1 6 -9
1 -23 -7 -30 -16z"/>
<path d="M4112 3505 c-42 -19 -53 -48 -59 -170 -7 -121 12 -205 52 -231 57
-38 170 -26 201 21 29 44 55 288 38 352 -11 39 -164 58 -232 28z m73 -25 c-10
-11 -20 -18 -23 -16 -5 6 21 35 32 36 5 0 1 -9 -9 -20z m-15 -44 c0 -3 -4 -8
-10 -11 -5 -3 -10 -1 -10 4 0 6 5 11 10 11 6 0 10 -2 10 -4z m67 -58 c-3 -8
-6 -5 -6 6 -1 11 2 17 5 13 3 -3 4 -12 1 -19z m-75 -18 c3 -19 0 -30 -7 -30
-7 0 -10 11 -7 30 2 17 5 30 7 30 2 0 5 -13 7 -30z m58 -40 c0 -5 -5 -10 -11
-10 -5 0 -7 5 -4 10 3 6 8 10 11 10 2 0 4 -4 4 -10z m-39 -50 c-28 -24 -38
-25 -38 -5 0 10 6 13 19 9 10 -3 18 -1 18 5 0 6 6 11 13 11 6 -1 1 -10 -12
-20z"/>
<path d="M1684 3449 c-11 -4 -32 -8 -49 -9 -25 -1 -27 -3 -10 -9 16 -6 9 -10
-30 -15 -55 -8 -116 -45 -149 -89 -14 -19 -17 -30 -9 -35 6 -4 49 -83 95 -177
83 -169 84 -170 128 -186 l45 -17 10 -81 c12 -91 28 -118 51 -86 11 15 13 37
8 97 -6 73 -5 80 16 103 12 13 20 27 17 32 -3 5 -1 15 5 23 8 12 9 11 4 -4 -6
-16 -4 -17 9 -6 61 50 57 128 -11 270 -50 106 -74 132 -134 147 l-35 9 24 13
c15 9 40 11 68 7 26 -3 42 -2 38 3 -3 5 3 11 12 14 10 2 -5 3 -33 3 -28 0 -60
-3 -70 -7z m-66 -234 c-3 -3 -9 2 -12 12 -6 14 -5 15 5 6 7 -7 10 -15 7 -18z
m39 -55 c-11 -18 -12 -18 -25 1 -8 11 -11 27 -8 36 6 14 8 14 26 -2 15 -14 17
-21 7 -35z m33 -8 c0 -4 -9 -13 -20 -20 -24 -15 -26 -9 -4 12 17 18 24 20 24
8z m53 -65 c-3 -4 -11 -3 -18 3 -8 7 -18 9 -23 6 -5 -3 -7 5 -5 18 l5 23 23
-21 c13 -11 21 -24 18 -29z m42 -45 c-7 -8 -35 13 -35 26 0 13 3 12 19 -4 10
-10 17 -20 16 -22z m-67 -20 c13 -27 15 -38 6 -27 -23 29 -46 75 -37 75 5 -1
18 -22 31 -48z m62 -62 c-19 -13 -30 -13 -30 0 0 6 10 10 23 10 18 0 19 -2 7
-10z"/>
<path d="M1641 3174 c0 -11 3 -14 6 -6 3 7 2 16 -1 19 -3 4 -6 -2 -5 -13z"/>
<path d="M1804 3435 c-16 -13 -17 -14 -1 -9 11 4 17 2 15 -6 -2 -6 19 -27 45
-45 26 -19 47 -37 47 -40 -1 -4 1 -9 4 -12 3 -4 6 -1 6 6 0 7 5 9 11 6 6 -4 8
-14 5 -22 -5 -13 19 -56 52 -91 7 -8 19 -27 27 -43 17 -32 57 -94 81 -124 8
-11 24 -36 34 -56 10 -19 26 -41 34 -48 9 -8 16 -18 16 -23 0 -5 9 -21 19 -36
100 -143 303 -464 337 -532 48 -99 111 -274 160 -449 46 -162 89 -245 167
-325 73 -74 119 -105 205 -136 46 -17 66 -30 73 -47 9 -24 -2 -66 -19 -77 -24
-14 -22 -56 3 -95 l26 -38 -26 -48 c-14 -26 -25 -59 -25 -72 0 -32 17 -63 35
-63 21 0 62 60 76 110 12 44 11 47 -22 93 -32 46 -33 48 -21 95 25 96 68 126
178 126 69 -1 72 0 88 30 10 17 37 46 62 64 98 72 203 235 250 387 24 79 24
239 0 404 -13 84 -17 150 -13 202 l6 77 -48 68 c-26 38 -66 101 -89 140 -23
39 -60 95 -82 123 -40 50 -42 51 -81 45 -32 -5 -46 -2 -69 15 l-30 21 -6 -24
c-14 -59 -81 -86 -210 -86 -67 0 -86 4 -108 21 -19 15 -26 17 -26 6 0 -34 -38
-50 -132 -54 -114 -6 -165 8 -188 52 -8 17 -16 32 -17 34 -2 2 -9 -2 -18 -9
-10 -8 -33 -11 -67 -8 -42 4 -57 11 -80 37 -15 17 -28 40 -28 51 0 54 -82 -11
-141 -111 -22 -38 -45 -69 -51 -69 -6 0 -8 3 -5 7 4 3 0 11 -8 17 -23 17 -146
220 -210 346 -60 117 -116 190 -166 216 -35 18 -50 18 -75 -1z m50 -4 c4 -5
-3 -7 -14 -4 -23 6 -26 13 -6 13 8 0 17 -4 20 -9z m110 -137 c5 -14 4 -15 -9
-4 -17 14 -19 20 -6 20 5 0 12 -7 15 -16z m1468 -523 c74 -36 217 -168 204
-190 -3 -5 0 -11 7 -14 7 -2 13 -17 15 -32 1 -16 6 -33 11 -39 16 -20 19 -90
5 -104 -22 -21 -34 -13 -34 22 0 44 -45 168 -67 184 -10 7 -18 17 -18 21 0 29
-112 120 -129 104 -3 -4 -6 -1 -6 6 0 17 -83 50 -148 58 -43 5 -51 8 -37 15
36 15 132 0 197 -31z m-267 -21 c-3 -5 -11 -10 -16 -10 -6 0 -7 5 -4 10 3 6
11 10 16 10 6 0 7 -4 4 -10z m-366 -81 c88 -54 296 -238 270 -239 -9 0 -22 7
-29 15 -7 8 -18 15 -25 15 -8 0 -15 4 -17 9 -5 14 -120 107 -155 125 -18 9
-33 21 -33 26 0 5 -16 17 -35 26 -19 9 -35 23 -35 30 0 20 19 17 59 -7z m318
-11 c-3 -8 -6 -5 -6 6 -1 11 2 17 5 13 3 -3 4 -12 1 -19z m-582 -45 c18 -14
18 -15 2 -9 -10 3 -23 6 -28 6 -5 0 -9 5 -9 10 0 14 12 12 35 -7z m65 -19 c0
-2 -7 -4 -15 -4 -8 0 -15 4 -15 10 0 5 7 7 15 4 8 -4 15 -8 15 -10z m997 -76
c-3 -8 -6 -5 -6 6 -1 11 2 17 5 13 3 -3 4 -12 1 -19z m-1022 -18 c3 -6 -1 -7
-9 -4 -18 7 -21 14 -7 14 6 0 13 -4 16 -10z m-40 -10 c-3 -5 -12 -10 -18 -10
-7 0 -6 4 3 10 19 12 23 12 15 0z m35 -70 c6 -11 8 -20 6 -20 -3 0 -10 9 -16
20 -6 11 -8 20 -6 20 3 0 10 -9 16 -20z m654 -141 c-2 -4 8 -15 23 -23 15 -8
23 -15 16 -16 -10 0 -93 39 -93 44 0 0 13 1 30 2 16 1 27 -3 24 -7z m483 -51
c-3 -8 -6 -5 -6 6 -1 11 2 17 5 13 3 -3 4 -12 1 -19z m-379 -60 c-6 -18 -28
-21 -28 -4 0 9 7 16 16 16 9 0 14 -5 12 -12z m-44 -24 c23 -9 20 -40 -6 -58
-19 -13 -25 -14 -43 -2 -52 34 -12 83 49 60z m-96 -59 c-3 -3 -9 2 -12 12 -6
14 -5 15 5 6 7 -7 10 -15 7 -18z m22 -25 c0 -6 11 -23 25 -37 13 -15 22 -29
19 -32 -5 -6 -64 60 -64 72 0 4 5 7 10 7 6 0 10 -5 10 -10z m87 -32 c-3 -7 -5
-2 -5 12 0 14 2 19 5 13 2 -7 2 -19 0 -25z m394 -90 c-9 -20 -17 -33 -19 -28
-2 5 1 18 7 29 6 11 11 32 12 48 0 24 2 25 8 8 5 -11 1 -34 -8 -57z m-853 -58
c12 -22 27 -40 32 -40 6 0 10 -6 10 -12 1 -22 69 -88 90 -88 11 0 20 -4 20 -8
0 -4 22 -16 48 -25 62 -23 208 -24 277 -3 79 23 125 42 137 54 19 19 28 14 26
-15 -2 -16 -15 -40 -31 -56 -17 -16 -25 -32 -21 -40 5 -8 2 -7 -9 2 -15 12
-19 11 -34 -7 -21 -24 -147 -52 -216 -46 -68 5 -159 28 -164 41 -3 7 -13 13
-22 13 -22 0 -101 85 -128 138 -12 23 -25 58 -29 77 -3 19 -10 35 -15 35 -5 0
-9 5 -9 10 0 21 16 8 38 -30z m843 -31 c-6 -24 -9 -28 -10 -12 -1 24 9 56 16
50 2 -3 0 -20 -6 -38z m-851 -139 c0 -5 -8 -10 -17 -10 -15 0 -16 2 -3 10 19
12 20 12 20 0z m58 -105 c-3 -3 -9 2 -12 12 -6 14 -5 15 5 6 7 -7 10 -15 7
-18z m472 -35 c-8 -5 -22 -9 -30 -9 -10 0 -8 3 5 9 27 12 43 12 25 0z m-210
-16 c0 -2 -7 -4 -15 -4 -8 0 -15 4 -15 10 0 5 7 7 15 4 8 -4 15 -8 15 -10z
m-130 -26 c0 -11 -2 -10 -38 8 -42 20 -40 25 3 11 19 -6 35 -14 35 -19z m273
25 c-7 -2 -21 -2 -30 0 -10 3 -4 5 12 5 17 0 24 -2 18 -5z m163 -18 c-11 -8
-29 -15 -40 -15 -17 1 -15 4 9 15 40 18 55 18 31 0z m-393 -22 c-7 -2 -19 -2
-25 0 -7 3 -2 5 12 5 14 0 19 -2 13 -5z m67 -7 c0 -3 -4 -8 -10 -11 -5 -3 -10
-1 -10 4 0 6 5 11 10 11 6 0 10 -2 10 -4z m252 -7 c-15 -6 -30 -5 -40 1 -13 7
-8 9 23 9 35 0 37 -1 17 -10z m-182 -19 c0 -5 -4 -10 -10 -10 -5 0 -10 5 -10
10 0 6 5 10 10 10 6 0 10 -4 10 -10z m107 4 c-3 -3 -12 -4 -19 -1 -8 3 -5 6 6
6 11 1 17 -2 13 -5z"/>
<path d="M3936 3423 c-6 -14 -5 -15 5 -6 7 7 10 15 7 18 -3 3 -9 -2 -12 -12z"/>
<path d="M2595 3200 l-20 -9 20 1 c11 0 31 4 45 8 l25 8 -25 0 c-14 0 -34 -3
-45 -8z"/>
<path d="M2515 3174 c-45 -23 -97 -65 -90 -72 4 -4 11 1 16 11 6 9 15 17 22
17 7 0 23 9 37 20 14 11 33 20 42 20 9 0 20 5 23 10 9 15 -16 12 -50 -6z"/>
<path d="M3485 3021 c72 -69 127 -143 181 -245 26 -50 49 -85 51 -79 6 16 -80
178 -126 237 -40 52 -132 136 -148 136 -4 0 15 -22 42 -49z"/>
<path d="M2336 3003 c-6 -14 -5 -15 5 -6 7 7 10 15 7 18 -3 3 -9 -2 -12 -12z"/>
<path d="M2310 2965 c-7 -9 -11 -17 -9 -20 3 -2 10 5 17 15 14 24 10 26 -8 5z"/>
<path d="M1900 2659 c0 -5 5 -7 10 -4 6 3 10 8 10 11 0 2 -4 4 -10 4 -5 0 -10
-5 -10 -11z"/>
<path d="M2178 2123 c-10 -2 -18 -9 -18 -14 0 -6 7 -6 18 -1 9 5 24 12 32 15
13 5 13 5 0 5 -8 0 -23 -2 -32 -5z"/>
<path d="M2407 2063 c-10 -9 -8 -43 2 -43 5 0 11 11 13 25 5 24 -2 32 -15 18z"/>
<path d="M2500 1830 c-13 -9 -13 -10 0 -10 8 0 22 5 30 10 13 9 13 10 0 10 -8
0 -22 -5 -30 -10z"/>
<path d="M2434 1792 c-6 -4 -16 -17 -23 -30 -10 -18 -9 -23 3 -28 8 -3 23 -4
33 -1 14 4 13 5 -4 6 -27 1 -28 4 -7 36 17 26 17 30 -2 17z"/>
<path d="M2136 1715 c-3 -9 -6 -44 -6 -76 0 -100 58 -210 199 -379 171 -204
260 -388 261 -537 0 -71 15 -56 35 35 44 193 16 279 -158 489 -173 210 -263
338 -293 421 -21 58 -30 68 -38 47z"/>
<path d="M2472 1550 c0 -14 2 -19 5 -12 2 6 2 18 0 25 -3 6 -5 1 -5 -13z"/>
<path d="M2491 1484 c0 -11 3 -14 6 -6 3 7 2 16 -1 19 -3 4 -6 -2 -5 -13z"/>
<path d="M2530 1370 c0 -6 7 -13 15 -16 8 -4 12 -10 9 -15 -3 -5 -1 -9 3 -9 5
0 17 -14 27 -32 11 -17 35 -45 54 -62 32 -29 151 -114 190 -135 15 -9 15 -11
-1 -45 -21 -45 -21 -47 -2 -40 8 4 15 12 15 19 0 7 7 18 15 25 40 33 -11 104
-104 145 -91 40 -160 94 -187 147 -14 28 -34 38 -34 18z"/>
<path d="M4071 1324 c0 -11 3 -14 6 -6 3 7 2 16 -1 19 -3 4 -6 -2 -5 -13z"/>
<path d="M3759 1074 c-12 -14 -11 -16 5 -13 11 2 21 10 24 17 5 17 -13 15 -29
-4z"/>
<path d="M3720 1050 c-8 -5 -27 -10 -42 -10 -31 0 -45 -15 -23 -24 10 -4 14
-17 11 -45 -3 -34 -1 -39 15 -38 12 1 15 5 9 12 -11 13 6 35 26 35 7 0 23 14
35 31 18 26 19 33 8 40 -18 11 -21 11 -39 -1z"/>
<path d="M3059 711 c-20 -16 -21 -21 -10 -35 17 -20 31 -21 31 -1 0 8 9 20 20
27 11 7 20 16 20 20 0 15 -38 8 -61 -11z"/>
<path d="M2738 713 c-10 -2 -18 -13 -18 -24 0 -22 35 -39 84 -39 17 0 37 -5
44 -12 23 -23 25 3 1 28 -20 22 -81 57 -91 53 -2 -1 -11 -3 -20 -6z"/>
<path d="M3282 588 c-14 -14 -16 -54 -3 -62 4 -3 6 6 3 19 -2 14 1 32 8 40 15
18 9 20 -8 3z"/>
<path d="M2769 564 c-1 -5 -1 -12 0 -17 1 -4 -11 -4 -25 -1 -19 5 -25 3 -20
-4 7 -12 76 -13 76 -2 0 11 -30 34 -31 24z"/>
<path d="M2695 540 c-3 -5 -1 -10 4 -10 6 0 11 5 11 10 0 6 -2 10 -4 10 -3 0
-8 -4 -11 -10z"/>
<path d="M3360 466 c0 -2 7 -7 16 -10 8 -3 12 -2 9 4 -6 10 -25 14 -25 6z"/>
<path d="M2406 331 c-5 -7 -3 -18 3 -24 14 -14 20 -6 11 17 -5 15 -9 16 -14 7z"/>
<path d="M3475 280 c15 -16 15 -22 5 -35 -7 -8 -8 -15 -2 -15 5 0 15 7 22 15
10 13 10 19 -5 35 -10 11 -23 20 -28 20 -6 0 -2 -9 8 -20z"/>
<path d="M2904 251 c-29 -26 -30 -29 -13 -39 14 -9 25 -9 44 0 19 8 31 8 50 0
14 -7 27 -12 29 -12 2 0 -14 18 -36 40 -22 22 -41 40 -42 40 0 0 -15 -13 -32
-29z"/>
<path d="M4525 1970 c3 -5 8 -10 11 -10 2 0 4 5 4 10 0 6 -5 10 -11 10 -5 0
-7 -4 -4 -10z"/>
<path d="M4603 1943 c-15 -6 5 -43 24 -43 19 0 26 20 13 35 -13 16 -17 17 -37
8z"/>
<path d="M3964 785 c-4 -9 -18 -22 -33 -30 -14 -8 -19 -14 -11 -14 19 0 50 23
50 37 0 6 6 13 13 15 9 4 9 6 -1 6 -7 1 -15 -6 -18 -14z"/>
<path d="M3955 710 c4 -6 11 -8 16 -5 14 9 11 15 -7 15 -8 0 -12 -5 -9 -10z"/>
<path d="M3825 470 c3 -5 8 -10 11 -10 2 0 4 5 4 10 0 6 -5 10 -11 10 -5 0 -7
-4 -4 -10z"/>
<path d="M3815 430 c3 -5 15 -10 26 -10 11 0 17 5 14 10 -3 6 -15 10 -26 10
-11 0 -17 -4 -14 -10z"/>
<path d="M240 3889 c0 -5 5 -7 10 -4 6 3 10 8 10 11 0 2 -4 4 -10 4 -5 0 -10
-5 -10 -11z"/>
<path d="M3 3470 c0 -25 2 -35 4 -22 2 12 2 32 0 45 -2 12 -4 2 -4 -23z"/>
<path d="M7 3353 c-10 -9 -9 -41 1 -47 5 -3 9 8 9 24 0 33 -1 33 -10 23z"/>
<path d="M480 2111 c0 -6 4 -13 10 -16 6 -3 7 1 4 9 -7 18 -14 21 -14 7z"/>
<path d="M500 2076 c0 -2 8 -10 18 -17 15 -13 16 -12 3 4 -13 16 -21 21 -21
13z"/>
<path d="M3803 160 c0 -36 2 -50 4 -32 2 17 2 47 0 65 -2 17 -4 3 -4 -33z"/>
<path d="M343 81 c-62 -18 -147 -71 -125 -79 6 -2 22 4 34 12 28 20 72 21 88
1 8 -9 30 -15 56 -15 36 0 54 7 94 37 57 42 53 50 -31 58 -36 3 -74 -1 -116
-14z"/>
<path d="M39 34 c-24 -26 -29 -35 -16 -32 10 1 27 18 38 36 27 41 21 41 -22
-4z"/>
<path d="M1090 38 c-34 -25 -40 -34 -27 -36 27 -5 40 3 60 37 10 17 17 31 15
31 -2 0 -24 -15 -48 -32z"/>
<path d="M522 37 c-30 -32 -28 -37 19 -37 38 0 40 2 37 27 -4 36 -28 40 -56
10z"/>
</g>
</svg>
