<svg xmlns="http://www.w3.org/2000/svg" viewBox="0 0 72.88 47.34"><defs><style>.cls-1{fill:#39c6f4;}.cls-2{fill:#b22921;}.cls-3{fill:#4d4d4f;opacity:0.1;}.cls-4{fill:#f44945;}</style></defs><title>logo_nav</title><g id="Capa_2" data-name="Capa 2"><g id="Capa_1-2" data-name="Capa 1"><path class="cls-1" d="M63.3,18.53c0-.29,0-.14,0,0Z"/><path class="cls-2" d="M11,21.09c-4.31-9.65.26-13.73,6.77-15.4L17,2.31C-.37,5.84,9.41,21.32,11,21.09Z"/><path class="cls-2" d="M26.92,38.91l-4.75-3,2.13-17L22.16,0H38.09a21.89,21.89,0,0,1,7,1.11,19.42,19.42,0,0,1,5.74,3,14.83,14.83,0,0,1,3.87,4.42A10.81,10.81,0,0,1,56.17,14a11,11,0,0,1-1.44,5.45,14.7,14.7,0,0,1-3.87,4.45c-1.63,1.26-2.61,2.26-4.81,3S43.38,28,40.89,28H35.58l3.52-6.67h1.79a6.75,6.75,0,0,0,5.51-2.46c.93-.93,1.16-2.88,1.16-4.88a6.15,6.15,0,0,0-2.8-5.11,10.57,10.57,0,0,0-6.67-2.17H31.71l1.58,12.26-1.58,17Z"/><path class="cls-3" d="M51.61,46.52C30.45,46.46,4.9,42.81,4.55,40.65c-.29-1.8,8.89-2.27,17.38-2.35C9.69,38.07-2.35,39,.4,41.3c7.05,3.57,35.26,5.88,51.21,6Z"/><path class="cls-4" d="M63.3,18.53c4.57,3.87,10.59,14.05,4.28,20C46.58,53.89,5,26.94,4.55,12.57,4.26,3.23,13.43.79,21.93.38,9.69-.82-2.35,4.18.4,15.94,7.83,35.52,38.78,47.8,54.09,47.33,85.22,45.64,69.74,23.33,63.3,18.53Z"/><path class="cls-2" d="M59.1,16.16l-.55,3.61c4,3.92,6.38,8.32,5.87,12.83-1.16,5.75-8.42,8.16-15.12,8.57C57.9,42.73,80.47,35.51,59.1,16.16Z"/></g></g></svg>