<svg xmlns="http://www.w3.org/2000/svg" viewBox="0 0 215.6 185.1"><defs><style>.cls-1{font-size:30.12px;}.cls-1,.cls-7{fill:#fff;font-family:Code-Bold, Code Bold;}.cls-2{letter-spacing:-0.05em;}.cls-3{letter-spacing:-0.01em;}.cls-4{letter-spacing:0.02em;}.cls-5{letter-spacing:-0.08em;}.cls-6{letter-spacing:-0.06em;}.cls-7{font-size:14.73px;}.cls-8{letter-spacing:-0.01em;}.cls-9{letter-spacing:0em;}.cls-10{letter-spacing:0.02em;}.cls-11{letter-spacing:-0.14em;}.cls-12{letter-spacing:-0.06em;}.cls-13{letter-spacing:0.02em;}.cls-14{fill:#b22921;}.cls-15{fill:#4d4d4f;opacity:0.1;}.cls-16{fill:#39c6f4;}.cls-17{fill:#f44945;}</style></defs><title>Recurso 3</title><g id="Capa_2" data-name="Capa 2"><g id="Capa_1-2" data-name="Capa 1"><text class="cls-1" transform="translate(9.49 164.48)"><tspan class="cls-2">P</tspan><tspan class="cls-3" x="14.31" y="0">a</tspan><tspan x="31.71" y="0">o</tspan><tspan class="cls-4" x="54.54" y="0">l</tspan><tspan x="69.57" y="0">a C</tspan><tspan class="cls-4" x="119.26" y="0">a</tspan><tspan class="cls-5" x="137.6" y="0">n</tspan><tspan class="cls-6" x="152.81" y="0">t</tspan><tspan x="167.03" y="0">or</tspan></text><text class="cls-7" transform="translate(55.49 181.77)">Co<tspan class="cls-8" x="21.63" y="0">n</tspan><tspan class="cls-9" x="30.13" y="0">s</tspan><tspan class="cls-10" x="38.29" y="0">u</tspan><tspan class="cls-11" x="47.28" y="0">l</tspan><tspan class="cls-12" x="52.33" y="0">t</tspan><tspan x="59.29" y="0">or </tspan><tspan class="cls-13" x="83.47" y="0">I</tspan><tspan x="89.51" y="0">T</tspan></text><path class="cls-14" d="M71.63,103.54,59,95.49l5.67-45.13L59,0h42.39a58.25,58.25,0,0,1,18.71,3,51.67,51.67,0,0,1,15.28,8,39.47,39.47,0,0,1,10.31,11.76,28.77,28.77,0,0,1,3.82,14.42,29.17,29.17,0,0,1-3.82,14.5,39.12,39.12,0,0,1-10.31,11.83c-4.33,3.35-6.94,6-12.8,8s-7.13,3-13.75,3H94.69L104,56.65h4.78c6.87,0,10.23-2.1,14.67-6.54,2.48-2.48,3.09-7.66,3.09-13s-2.48-10-7.45-13.61a28.14,28.14,0,0,0-17.76-5.77h-17l4.21,32.61L84.38,95.58Z"/><path class="cls-15" d="M137.34,123.81C81,123.64,13,113.94,12.1,108.18c-.77-4.78,23.65-6,46.25-6.24-32.57-.61-64.61,1.95-57.3,8C19.82,119.42,94.9,125.56,137.34,126Z"/><path class="cls-16" d="M168.45,49.32c.13-.78,0-.38,0,0Z"/><path class="cls-17" d="M168.45,49.32c12.15,10.3,28.18,37.39,11.39,53.15C124,143.41,13.29,71.69,12.1,33.45,11.33,8.61,35.75,2.09,58.35,1,25.78-2.19-6.26,11.12,1.05,42.42c19.78,52.12,102.16,84.79,142.89,83.53C226.78,121.46,185.59,62.09,168.45,49.32Z"/><path class="cls-14" d="M157.29,43l-1.46,9.6c10.58,10.42,17,22.13,15.61,34.13-3.08,15.29-22.42,21.71-40.23,22.8C154.08,113.71,214.14,94.51,157.29,43Z"/></g></g></svg>